<?xml version="1.0" encoding="UTF-8" standalone="no"?>
<!DOCTYPE svg PUBLIC "-//W3C//DTD SVG 1.1//EN"
 "http://www.w3.org/Graphics/SVG/1.1/DTD/svg11.dtd">
<!-- Generated by graphviz version 2.38.0 (20140413.2041)
 -->
<!-- Title: G Pages: 1 -->
<svg width="124pt" height="96pt"
 viewBox="0.00 0.00 124.00 96.00" xmlns="http://www.w3.org/2000/svg" xmlns:xlink="http://www.w3.org/1999/xlink">
<g id="graph0" class="graph" transform="scale(1 1) rotate(0) translate(4 92)">
<title>G</title>
<polygon fill="white" stroke="none" points="-4,4 -4,-92 120,-92 120,4 -4,4"/>
<g id="clust1" class="cluster"><title>cluster_Global</title>
<path fill="none" stroke="gray" d="M20,-8C20,-8 96,-8 96,-8 102,-8 108,-14 108,-20 108,-20 108,-68 108,-68 108,-74 102,-80 96,-80 96,-80 20,-80 20,-80 14,-80 8,-74 8,-68 8,-68 8,-20 8,-20 8,-14 14,-8 20,-8"/>
<text text-anchor="middle" x="58" y="-67.2" font-family="Times New Roman,serif" font-size="11.00" fill="gray">Global</text>
</g>
<!-- \\FeedFinder -->
<g id="node1" class="node"><title>\\FeedFinder</title>
<polygon fill="none" stroke="black" points="100,-52 16,-52 16,-16 100,-16 100,-52"/>
<text text-anchor="middle" x="58" y="-31.2" font-family="Courier,monospace" font-size="11.00">FeedFinder</text>
</g>
</g>
</svg>
